<svg width="32" height="32" viewBox="0 0 32 32" fill="none" xmlns="http://www.w3.org/2000/svg">
<g id="carbon:phone-filled">
<path id="Vector" d="M21.33 23.48L23.57 21.24C23.8717 20.9421 24.2534 20.7381 24.6688 20.6529C25.0842 20.5677 25.5154 20.6049 25.91 20.76L28.64 21.85C29.0388 22.0119 29.3808 22.2882 29.6228 22.6441C29.8648 23.0001 29.9961 23.4197 30 23.85V28.85C29.9977 29.1428 29.9361 29.4321 29.8191 29.7005C29.702 29.9688 29.5318 30.2107 29.3188 30.4116C29.1058 30.6125 28.8543 30.7682 28.5796 30.8693C28.3048 30.9704 28.0124 31.0149 27.72 31C8.59 29.81 4.73 13.61 4 7.41004C3.96611 7.10558 3.99707 6.79739 4.09085 6.50575C4.18462 6.21411 4.33908 5.94563 4.54407 5.71798C4.74905 5.49032 4.99992 5.30865 5.28016 5.1849C5.5604 5.06116 5.86366 4.99816 6.17 5.00004H11C11.431 5.00132 11.8518 5.13151 12.2082 5.37387C12.5646 5.61623 12.8404 5.95968 13 6.36004L14.09 9.09004C14.2503 9.48311 14.2911 9.91468 14.2075 10.3309C14.124 10.747 13.9196 11.1293 13.62 11.43L11.38 13.67C11.38 13.67 12.67 22.4 21.33 23.48Z" fill="#A08040"/>
</g>
</svg>
